<svg xmlns="http://www.w3.org/2000/svg" width="400" height="400" viewBox="0 0 400 400">
  <defs>
    <style>
      .d { fill: none; stroke: #4A4036; stroke-width: 1.4; stroke-linecap: round; stroke-linejoin: round; opacity: 0.08; }
      .f { fill: #4A4036; opacity: 0.08; }
    </style>
  </defs>

  <!-- 1. Coffee cup with steam (top-left) -->
  <g class="d" transform="translate(30, 25)">
    <path d="M5,12 h26 a3,3 0 0,1 3,3 v8 a12,12 0 0,1 -12,12 h-8 a12,12 0 0,1 -12,-12 v-8 a3,3 0 0,1 3,-3 z"/>
    <path d="M34,16 h4 a5,5 0 0,1 5,5 v2 a5,5 0 0,1 -5,5 h-4"/>
    <path d="M12,4 Q14,8 12,10 M18,3 Q20,7 18,9 M24,4 Q26,8 24,10"/>
    <path d="M2,35 h32"/>
  </g>

  <!-- 2. Speech Bubble (top-center) -->
  <g class="d" transform="translate(130, 30)">
    <rect x="0" y="0" width="32" height="22" rx="7"/>
    <path d="M7,22 l-3,6 l7,-3"/>
    <line x1="7" y1="7" x2="25" y2="7"/>
    <line x1="7" y1="12" x2="20" y2="12"/>
    <line x1="7" y1="16" x2="15" y2="16"/>
  </g>

  <!-- 3. Heart (top-right) -->
  <g class="d" transform="translate(235, 28)">
    <path d="M14,4 C9,-2 0,0 0,9 C0,17 14,26 14,26 C14,26 28,17 28,9 C28,0 19,-2 14,4 Z"/>
  </g>

  <!-- 4. Camera (top far-right) -->
  <g class="d" transform="translate(325, 30)">
    <rect x="0" y="6" width="34" height="24" rx="4"/>
    <path d="M9,6 l3,-4 h10 l3,4"/>
    <circle cx="17" cy="18" r="6"/>
    <circle cx="27" cy="11" r="1.5" class="f"/>
  </g>

  <!-- 5. Music notes (row 2 left) -->
  <g class="d" transform="translate(40, 115)">
    <path d="M6,22 v-16 l16,-4 v16"/>
    <circle cx="4" cy="22" r="3.5" class="f"/>
    <circle cx="20" cy="18" r="3.5" class="f"/>
    <line x1="6" y1="10" x2="22" y2="6"/>
  </g>

  <!-- 6. Cupcake / Sweet treat (row 2 center-left) -->
  <g class="d" transform="translate(125, 110)">
    <path d="M4,15 l3,15 h18 l3,-15 z"/>
    <path d="M1,15 Q8,8 16,8 Q24,8 31,15 Z"/>
    <circle cx="16" cy="6" r="2.5" class="f"/>
    <line x1="10" y1="16" x2="11" y2="28"/>
    <line x1="16" y1="16" x2="16" y2="28"/>
    <line x1="22" y1="16" x2="21" y2="28"/>
  </g>

  <!-- 7. Clock (row 2 center-right) -->
  <g class="d" transform="translate(225, 115)">
    <circle cx="14" cy="14" r="13"/>
    <polyline points="14,6 14,14 19,14"/>
  </g>

  <!-- 8. Paper Plane (row 2 far-right) -->
  <g class="d" transform="translate(320, 115)">
    <path d="M2,14 l26,-12 l-10,26 l-5,-9 l-11,-5 z"/>
    <line x1="28" y1="2" x2="13" y2="19"/>
  </g>

  <!-- 9. Gift box (row 3 left) -->
  <g class="d" transform="translate(30, 205)">
    <rect x="3" y="10" width="26" height="20" rx="2"/>
    <rect x="0" y="5" width="32" height="6" rx="2"/>
    <line x1="16" y1="5" x2="16" y2="30"/>
    <path d="M16,5 C13,0 8,0 10,4 C12,7 16,5 16,5 Z"/>
    <path d="M16,5 C19,0 24,0 22,4 C20,7 16,5 16,5 Z"/>
  </g>

  <!-- 10. Headphones (row 3 center-left) -->
  <g class="d" transform="translate(125, 205)">
    <path d="M3,18 A14,14 0 0,1 29,18"/>
    <rect x="0" y="15" width="6" height="11" rx="3"/>
    <rect x="26" y="15" width="6" height="11" rx="3"/>
  </g>

  <!-- 11. Star & Sparkles (row 3 center-right) -->
  <g class="d" transform="translate(225, 205)">
    <polygon points="12,1 15,9 23,9 17,14 19,22 12,17 5,22 7,14 1,9 9,9"/>
    <circle cx="27" cy="4" r="1" class="f"/>
    <circle cx="2" cy="24" r="1.2" class="f"/>
  </g>

  <!-- 12. Smiley Face (row 3 far-right) -->
  <g class="d" transform="translate(325, 205)">
    <circle cx="15" cy="15" r="13"/>
    <circle cx="10" cy="11" r="1.5" class="f"/>
    <circle cx="20" cy="11" r="1.5" class="f"/>
    <path d="M9,18 Q15,24 21,18"/>
  </g>

  <!-- 13. Bell (row 4 left) -->
  <g class="d" transform="translate(35, 305)">
    <path d="M14,3 A11,11 0 0,0 3,14 v7 l-3,3 h28 l-3,-3 v-7 A11,11 0 0,0 14,3 Z"/>
    <circle cx="14" cy="28" r="2.5" class="f"/>
    <circle cx="14" cy="2" r="1.5" class="f"/>
  </g>

  <!-- 14. Cake pop / Lollipop (row 4 center-left) -->
  <g class="d" transform="translate(130, 300)">
    <circle cx="14" cy="13" r="11"/>
    <line x1="14" y1="24" x2="14" y2="38"/>
    <path d="M7,13 A7,7 0 0,1 14,6"/>
    <circle cx="11" cy="10" r="1" class="f"/>
    <circle cx="17" cy="15" r="1" class="f"/>
  </g>

  <!-- 15. Sun / Weather (row 4 center-right) -->
  <g class="d" transform="translate(225, 305)">
    <circle cx="15" cy="15" r="7"/>
    <line x1="15" y1="3" x2="15" y2="0"/>
    <line x1="15" y1="27" x2="15" y2="30"/>
    <line x1="3" y1="15" x2="0" y2="15"/>
    <line x1="27" y1="15" x2="30" y2="15"/>
    <line x1="6" y1="6" x2="4" y2="4"/>
    <line x1="24" y1="24" x2="26" y2="26"/>
    <line x1="6" y1="24" x2="4" y2="26"/>
    <line x1="24" y1="6" x2="26" y2="4"/>
  </g>

  <!-- 16. Envelope / Letter (row 4 far-right) -->
  <g class="d" transform="translate(320, 305)">
    <rect x="0" y="4" width="30" height="20" rx="3"/>
    <polyline points="0,5 15,16 30,5"/>
  </g>

  <!-- Little filler stars and dots -->
  <circle cx="85" cy="75" r="1.5" class="f"/>
  <circle cx="185" cy="75" r="1.5" class="f"/>
  <circle cx="285" cy="75" r="1.5" class="f"/>
  <circle cx="385" cy="75" r="1.5" class="f"/>

  <circle cx="85" cy="165" r="1.5" class="f"/>
  <circle cx="185" cy="165" r="1.5" class="f"/>
  <circle cx="285" cy="165" r="1.5" class="f"/>
  <circle cx="385" cy="165" r="1.5" class="f"/>

  <circle cx="85" cy="265" r="1.5" class="f"/>
  <circle cx="185" cy="265" r="1.5" class="f"/>
  <circle cx="285" cy="265" r="1.5" class="f"/>
  <circle cx="385" cy="265" r="1.5" class="f"/>

  <circle cx="85" cy="365" r="1.5" class="f"/>
  <circle cx="185" cy="365" r="1.5" class="f"/>
  <circle cx="285" cy="365" r="1.5" class="f"/>
  <circle cx="385" cy="365" r="1.5" class="f"/>
</svg>
